<svg width="145" height="37" viewBox="0 0 145 37" fill="none" xmlns="http://www.w3.org/2000/svg">
<path fill-rule="evenodd" clip-rule="evenodd" d="M131.083 21.2469V36.3528H137.153V21.2469C137.153 17.2234 139.906 13.9763 143.93 13.9763H144.706V8.47046H143.93C136.871 8.47046 131.083 14.1881 131.083 21.2469Z" fill="#023047"/>
<mask id="mask0_21_9348" style="mask-type:alpha" maskUnits="userSpaceOnUse" x="96" y="8" width="30" height="29">
<path fill-rule="evenodd" clip-rule="evenodd" d="M96.7769 8.47046H125.153V36.3528H96.7769V8.47046V8.47046Z" fill="white"/>
</mask>
<g mask="url(#mask0_21_9348)">
<path fill-rule="evenodd" clip-rule="evenodd" d="M111.036 14.2587C115.553 14.2587 119.153 17.9293 119.153 22.3763C119.153 27.1058 115.624 30.5646 111.036 30.5646C106.447 30.5646 102.918 27.1058 102.918 22.3763C102.918 17.7175 106.447 14.2587 111.036 14.2587ZM111.036 36.3528C114.071 36.3528 117.036 35.3646 119.153 33.5999V36.3528H125.153V21.8116C125.153 14.4705 119.224 8.47046 111.812 8.47046H111.036C103.13 8.47046 96.7769 14.6116 96.7769 22.3763C96.7769 30.141 103.13 36.3528 111.036 36.3528Z" fill="#023047"/>
</g>
<path fill-rule="evenodd" clip-rule="evenodd" d="M47.9297 14.2587C52.4474 14.2587 56.0474 17.9293 56.0474 22.3763C56.0474 27.1058 52.518 30.5646 47.9297 30.5646C43.3415 30.5646 39.8121 27.1058 39.8121 22.3763C39.8121 17.7175 43.3415 14.2587 47.9297 14.2587ZM47.9297 36.3528C50.965 36.3528 53.9297 35.3646 56.0474 33.5999V36.3528H62.0474V21.8116C62.0474 14.4705 56.118 8.47046 48.7062 8.47046H47.9297C40.0238 8.47046 33.6709 14.6116 33.6709 22.3763C33.6709 30.141 40.0238 36.3528 47.9297 36.3528Z" fill="#023047"/>
<path fill-rule="evenodd" clip-rule="evenodd" d="M14.3296 30.5647C9.81191 30.5647 6.21191 26.8941 6.21191 22.447C6.21191 17.7176 9.74133 14.2588 14.3296 14.2588C18.9178 14.2588 22.4472 17.7176 22.4472 22.447C22.4472 27.1058 18.9178 30.5647 14.3296 30.5647ZM14.3296 8.47055C11.2943 8.47055 8.32956 9.45878 6.21191 11.2235V0.635254H0.211914V22.9411C0.211914 30.2823 6.14133 36.2823 13.5531 36.2823H14.3296C22.2354 36.2823 28.5884 30.1411 28.5884 22.3764C28.5178 14.6823 22.2354 8.47055 14.3296 8.47055Z" fill="#023047"/>
<path fill-rule="evenodd" clip-rule="evenodd" d="M92.3298 36.3528V30.9175H76.3063L92.3298 13.9763V8.54102H67.9062V13.9763H84.1415L68.0474 30.9175V36.3528H92.3298Z" fill="#023047"/>
</svg>
