<svg width="205" height="51" viewBox="0 0 205 51" fill="none" xmlns="http://www.w3.org/2000/svg">
<path fill-rule="evenodd" clip-rule="evenodd" d="M185.4 29.2V50.6H194V29.2C194 23.5 197.9 18.9 203.6 18.9H204.7V11.1H203.6C193.6 11.1 185.4 19.2 185.4 29.2Z" fill="white"/>
<mask id="mask0_296_1649" style="mask-type:alpha" maskUnits="userSpaceOnUse" x="136" y="11" width="41" height="40">
<path fill-rule="evenodd" clip-rule="evenodd" d="M136.8 11.1H177V50.6H136.8V11.1V11.1Z" fill="white"/>
</mask>
<g mask="url(#mask0_296_1649)">
<path fill-rule="evenodd" clip-rule="evenodd" d="M157 19.3C163.4 19.3 168.5 24.5 168.5 30.8C168.5 37.5 163.5 42.4 157 42.4C150.5 42.4 145.5 37.5 145.5 30.8C145.5 24.2 150.5 19.3 157 19.3ZM157 50.6C161.3 50.6 165.5 49.2 168.5 46.7V50.6H177V30C177 19.6 168.6 11.1 158.1 11.1H157C145.8 11.1 136.8 19.8 136.8 30.8C136.8 41.8 145.8 50.6 157 50.6Z" fill="white"/>
</g>
<path fill-rule="evenodd" clip-rule="evenodd" d="M67.5999 19.3C73.9999 19.3 79.0999 24.5 79.0999 30.8C79.0999 37.5 74.0999 42.4 67.5999 42.4C61.0999 42.4 56.0999 37.5 56.0999 30.8C56.0999 24.2 61.0999 19.3 67.5999 19.3ZM67.5999 50.6C71.8999 50.6 76.0999 49.2 79.0999 46.7V50.6H87.5999V30C87.5999 19.6 79.1999 11.1 68.6999 11.1H67.5999C56.3999 11.1 47.3999 19.8 47.3999 30.8C47.3999 41.8 56.3999 50.6 67.5999 50.6Z" fill="white"/>
<path fill-rule="evenodd" clip-rule="evenodd" d="M20 42.4C13.6 42.4 8.5 37.2 8.5 30.9C8.5 24.2 13.5 19.3 20 19.3C26.5 19.3 31.5 24.2 31.5 30.9C31.5 37.5 26.5 42.4 20 42.4ZM20 11.1C15.7 11.1 11.5 12.5 8.5 15V0H0V31.6C0 42 8.4 50.5 18.9 50.5H20C31.2 50.5 40.2 41.8 40.2 30.8C40.1 19.9 31.2 11.1 20 11.1Z" fill="white"/>
<path fill-rule="evenodd" clip-rule="evenodd" d="M130.5 50.6V42.9H107.8L130.5 18.9V11.2H95.8999V18.9H118.9L96.0999 42.9V50.6H130.5Z" fill="white"/>
</svg>
